<?xml version="1.0" encoding="utf-8"?>
<!-- Generator: Adobe Illustrator 23.0.1, SVG Export Plug-In . SVG Version: 6.00 Build 0)  -->
<svg version="1.1" xmlns="http://www.w3.org/2000/svg" xmlns:xlink="http://www.w3.org/1999/xlink" x="0px" y="0px"
	 viewBox="0 0 884.23 167.53" style="enable-background:new 0 0 884.23 167.53;" xml:space="preserve">
<style type="text/css">
	.st0{fill:#D5AF34;stroke:#000000;stroke-miterlimit:10;}
	.st1{font-family:'MyriadPro-Regular';}
	.st2{font-size:124.9768px;}
	.st3{fill:#FFFFFF;stroke:#000000;stroke-miterlimit:10;}
	.st4{stroke:#000000;stroke-miterlimit:10;}
</style>
<g id="Layer_5">
</g>
<g id="Layer_2">
</g>
<g id="Layer_4">
	<g>
		<text transform="matrix(1 0 0 1 150.5493 166.5739)" class="st0 st1 st2">KazianaMedia</text>
		<path class="st3" d="M143.15,96.74c0,39.1-32.04,70.79-71.57,70.79S0,135.84,0,96.74c0-12.91,3.49-25.01,9.6-35.43
			c12.38-21.14,35.5-35.36,61.98-35.36c15.67,0,30.16,4.98,41.94,13.42C131.47,52.24,143.15,73.14,143.15,96.74z"/>
		<path class="st3" d="M16.2,51.89"/>
		<path class="st3" d="M9.6,61.31c0,0,19.54-0.08,15.04,9.3c0,0-3.85,11.8,3.07,16.17c5.61,3.54,20.64,11.88,22.14,17.08
			c0.11,0.36,0.28,0.7,0.56,0.96c3.71,3.58,0.31,9.43,0.02,10.11h0c-4.58,3.95-2.88,7.82-1.88,10.15c0.31,0.73,0.88,1.3,1.57,1.71
			c0.81,0.48,2.22,1.9,4.64,5.56c5.16,7.81-1.25,4.04,1.25,16.59s3.76,17.62,3.76,17.62"/>
		<path class="st3" d="M76.05,167.4c2.62-9.95,12.15-31.39,20.68-39.91c0.6-0.6,0.91-1.41,0.87-2.26l-0.7-13.91
			c-0.09-1.7-1.55-2.99-3.25-2.86c-4.39,0.35-11.94,0.78-12.33-0.27c-0.56-1.49-13.57-18.77-20.07-17.66
			c-3.37,0.58-5.89,0.26-7.53-0.18c-1.36-0.37-2.29-1.63-2.23-3.05l0.23-5.39c0.03-0.79,0.38-1.54,0.95-2.08l7.94-7.43
			c1.85-1.73,2.94-4.12,3.03-6.65l0.23-6.28c0,0-0.39-2.95,8.71-1.83c5.51,0.67,13.39-1.15,13.01-9.29
			c-0.31-6.69-5.2-21.86-5.2-21.86"/>
		<path class="st4" d="M59.01,100.86l2.32,11.91c0.24,1.21-0.28,2.45-1.31,3.12c-1.03,0.67-2.12,1.94-2.12,4.3
			c0,4.46,6.69,6.13,6.5,8.73c-0.19,2.6-0.37,23.79,1.49,28.06s4.65-1.12,4.65-1.12s0.56-14.31,7.43-18.58
			c6.88-4.27,10.22-13.01,10.22-13.01c-0.37-6.13-0.19-3.9-0.37-6.13c-0.14-1.7-6.32-2.21-9.26-2.36c-0.98-0.05-1.9-0.52-2.52-1.29
			c-13-16.3-4.43-12.79-13.43-16.48C57.53,95.94,59.01,100.86,59.01,100.86z"/>
		<path class="st3" d="M109.73,36.84c0,0-2.03,13.72-3.7,15.17c-1.67,1.46-9.11,5.15-9.48,8.69c-0.37,3.54-4.96,18.41,6.53,21.57
			s10.75,1.12,11.31,5.95c0.56,4.83,1.86,7.99,0,10.04s-8.92,11.34-2.42,15.8s27.99,3.65,27.99,3.65"/>
		<path class="st4" d="M142.38,107.17c0,0-18.51,3.73-21.3,0.85s-0.04-7.87,1.67-10.51c2.13-3.27,1.83-16.41-1.34-17.76
			c-0.94-0.4-1.86-0.85-2.59-1.56c-0.92-0.9-2.34-2.01-4.35-2.94c-1.68-0.78-3.61-0.74-5.32-0.01c-2.08,0.89-4.9,1.3-4.43-3.36
			c0.27-2.66,0.6-4.52,0.89-5.8c0.36-1.54,1.23-2.91,2.46-3.91c2.26-1.83,6.26-5.44,6.12-7.89c-0.19-3.4,4.85-10.49,4.85-10.49
			S149.83,69.99,142.38,107.17z"/>
		<path class="st3" d="M55.98,57.22"/>
		<path class="st3" d="M38.33,83.16"/>
		<path class="st4" d="M68.99,26c1.69,0.07,3.03,6.21,3.66,9.82c0.23,1.32,0.63,2.61,1.26,3.8c0.91,1.73,2.04,5.04,0.63,9.39
			c-2.13,6.55-14.32-2.79-17.53,4.32c-3.21,7.11-0.28,12.41-1.03,14.22c-0.75,1.81-7.47,5.58-9.98,7.81
			c-2.51,2.23-2.09,6.55-2.23,9.76c-0.14,3.21-9.09-5.85-9.09-5.85c-4.07-2.79,0.72-7.39,0-15.89S16.2,51.89,16.2,51.89
			S38.18,24.73,68.99,26z"/>
		<path class="st4" d="M135.2,144.63"/>
		<path class="st4" d="M74.54,123.72"/>
		<path class="st3" d="M0.68,106.5c0,0,6.85-7.03,12.7-2.29c0,0,7.81,4.79,11.99,4.9s7.53,1.51,7.53,6.53
			c0,5.02,0.56,13.44,3.07,12.43c0,0,2.23-2.68,5.02,2.9c2.79,5.58-2.1,29.42-7.47,25.73"/>
		<path class="st4" d="M23.89,149.53c0,0,9.16-4.16,8.71-10.85c-0.37-5.51-4.57-1.01-8.75-5.3c-2.29-2.35-2.57-6.81-2.36-10.37
			c0.18-3.01-1.66-5.76-4.51-6.74c-2.16-0.74-4.87-1.79-7.9-3.25c-7.53-3.62-7.23,0.07-7.23,0.07S3.31,129.76,23.89,149.53z"/>
		<g>
			<path class="st0" d="M120.17,33.61"/>
			<path class="st0" d="M16.2,141.02c62.46-8.92,124.34-53.24,124.34-109.01h10.01L132.67,0l-21.29,32.01h10.04
				C121.42,83.72,71.69,125.95,16.2,141.02"/>
		</g>
	</g>
</g>
</svg>
